<svg width="424" height="410" viewBox="0 0 424 410" fill="none" xmlns="http://www.w3.org/2000/svg">
<path d="M423.128 128.542H294.586V0C365.53 0 423.128 57.5979 423.128 128.542Z" fill="#E04C2C"/>
<path d="M294.576 269.271V140.73L423.117 140.73C423.117 211.674 365.519 269.271 294.576 269.271Z" fill="#E04C2C"/>
<path d="M294.576 410V281.458H423.117C423.117 352.402 365.519 410 294.576 410Z" fill="#E04C2C"/>
<path d="M275.835 128.542H147.293V0C218.237 0 275.835 57.5979 275.835 128.542Z" fill="#E04C2C"/>
<path d="M275.835 269.27H147.293V140.729C218.237 140.729 275.835 198.326 275.835 269.27Z" fill="#E04C2C"/>
<path d="M147.293 281.458H275.835V410C204.891 410 147.293 352.402 147.293 281.458Z" fill="#E04C2C"/>
<path d="M128.542 0V128.542H0.000265753C0.000265753 57.5979 57.5981 0 128.542 0Z" fill="#E04C2C"/>
<path d="M128.542 140.729V269.27H0C0 198.326 57.5979 140.729 128.542 140.729Z" fill="#E04C2C"/>
<path d="M0 281.458H128.542V410C57.5979 410 0 352.402 0 281.458Z" fill="#E04C2C"/>
</svg>
