<svg width="666" height="102" viewBox="0 0 666 102" fill="none" xmlns="http://www.w3.org/2000/svg">
<path d="M525.557 51.6045C524.271 51.6045 523.081 51.3682 521.984 50.8975C520.888 50.4269 519.942 49.7675 519.146 48.9195C518.35 48.0715 517.728 47.0659 517.284 45.9006C516.838 44.7354 516.616 43.4603 516.616 42.0732C516.616 40.6861 516.834 39.413 517.272 38.2581C517.709 37.1012 518.325 36.0997 519.121 35.2517C519.917 34.4037 520.865 33.7485 521.96 33.2861C523.056 32.8238 524.247 32.5916 525.53 32.5916C526.969 32.5916 528.263 32.8777 529.409 33.452C530.556 34.0263 531.495 34.835 532.223 35.88C532.951 36.9249 533.401 38.142 533.573 39.5291H530.9C530.676 38.0736 530.091 36.9395 529.14 36.1246C528.188 35.3118 526.994 34.9034 525.555 34.9034C524.338 34.9034 523.264 35.1978 522.331 35.7887C521.398 36.3796 520.674 37.2111 520.16 38.2809C519.646 39.3508 519.389 40.6156 519.389 42.0711C519.389 43.5266 519.65 44.7727 520.172 45.8613C520.695 46.9498 521.418 47.7937 522.343 48.3929C523.268 48.9921 524.338 49.2927 525.555 49.2927C526.994 49.2927 528.196 48.8863 529.165 48.0715C530.133 47.2587 530.72 46.1225 530.925 44.667H533.622C533.434 46.0727 532.971 47.2919 532.235 48.3286C531.499 49.3653 530.56 50.1698 529.422 50.7441C528.283 51.3184 526.994 51.6045 525.555 51.6045H525.557Z" fill="#242424"/>
<path d="M543.133 51.6045C541.814 51.6045 540.606 51.3682 539.511 50.8975C538.414 50.4269 537.464 49.7634 536.658 48.9071C535.851 48.0508 535.223 47.041 534.769 45.8758C534.315 44.7105 534.089 43.4271 534.089 42.0213C534.089 40.1719 534.475 38.536 535.246 37.1136C536.017 35.6913 537.083 34.582 538.445 33.7858C539.807 32.9896 541.362 32.5916 543.108 32.5916C544.854 32.5916 546.457 32.9896 547.811 33.7858C549.165 34.582 550.23 35.6913 551.01 37.1136C551.789 38.536 552.179 40.1802 552.179 42.0462C552.179 43.4333 551.951 44.7147 551.499 45.8882C551.045 47.0617 550.415 48.0715 549.61 48.9195C548.804 49.7675 547.85 50.4269 546.745 50.8975C545.64 51.3682 544.437 51.6045 543.135 51.6045H543.133ZM543.106 49.2927C544.34 49.2927 545.426 48.9796 546.37 48.3555C547.311 47.7315 548.053 46.8689 548.592 45.7742C549.131 44.6773 549.401 43.4188 549.401 41.9965C549.401 40.5741 549.135 39.355 548.605 38.283C548.074 37.2131 547.338 36.3817 546.394 35.7908C545.451 35.1999 544.356 34.9055 543.106 34.9055C541.856 34.9055 540.763 35.1999 539.83 35.7908C538.897 36.3817 538.169 37.209 537.647 38.2706C537.124 39.3321 536.863 40.5741 536.863 41.9965C536.863 43.4188 537.128 44.7022 537.659 45.7991C538.19 46.8959 538.922 47.7522 539.857 48.368C540.79 48.9838 541.874 49.2927 543.108 49.2927H543.106Z" fill="#242424"/>
<path d="M553.641 51.3474V32.8486H556.801L566.616 48.6769L566 48.8054V32.8486H568.621V51.3474H565.461L555.646 35.5192L556.262 35.3906V51.3474H553.641Z" fill="#242424"/>
<path d="M577.587 51.5798C575.36 51.5798 573.579 51.049 572.241 49.9874C570.906 48.9258 570.127 47.4102 569.903 45.4405H572.548C572.702 46.726 573.216 47.7004 574.091 48.3702C574.964 49.0378 576.146 49.3716 577.636 49.3716C578.887 49.3716 579.834 49.1394 580.475 48.677C581.118 48.2147 581.439 47.5553 581.439 46.699C581.439 45.9277 581.225 45.316 580.796 44.862C580.367 44.4079 579.691 44.0368 578.766 43.7444L575.555 42.716C573.91 42.1852 572.702 41.5176 571.932 40.7111C571.161 39.9066 570.776 38.8865 570.776 37.6528C570.776 36.6078 571.037 35.708 571.559 34.9553C572.082 34.2027 572.818 33.6159 573.769 33.195C574.721 32.7762 575.828 32.5647 577.097 32.5647C579.05 32.5647 580.614 33.0582 581.787 34.043C582.961 35.0279 583.633 36.3943 583.805 38.1421H581.159C580.954 36.9769 580.508 36.1247 579.824 35.5856C579.137 35.0465 578.196 34.777 576.998 34.777C575.868 34.777 574.985 34.9989 574.352 35.4446C573.718 35.8904 573.4 36.5145 573.4 37.3211C573.4 37.9721 573.61 38.5153 574.031 38.9528C574.45 39.3903 575.148 39.7614 576.125 40.0704L579.49 41.1506C581.049 41.6482 582.2 42.3241 582.946 43.1805C583.691 44.0368 584.064 45.117 584.064 46.417C584.064 48.0612 583.498 49.3343 582.368 50.2321C581.238 51.1319 579.643 51.5818 577.589 51.5818L577.587 51.5798Z" fill="#242424"/>
<path d="M592.54 51.6045C590.176 51.6045 588.36 50.9099 587.093 49.5228C585.824 48.1357 585.192 46.1577 585.192 43.5867V32.8466H587.916V43.8957C587.916 45.6601 588.318 46.9995 589.125 47.916C589.93 48.8324 591.068 49.2906 592.542 49.2906C594.016 49.2906 595.206 48.8365 596.011 47.9284C596.815 47.0203 597.22 45.6767 597.22 43.8936V32.8445H599.944V43.6365C599.944 46.1722 599.305 48.1337 598.03 49.5208C596.753 50.9079 594.924 51.6024 592.544 51.6024L592.54 51.6045Z" fill="#242424"/>
<path d="M602.021 51.3474V32.8486H604.746V51.3474H602.021ZM603.359 51.3474V49.1123H614.047V51.3474H603.359Z" fill="#242424"/>
<path d="M617.412 51.3474V35.0838H611.169V32.8486H626.38V35.0838H620.137V51.3474H617.412Z" fill="#242424"/>
<path d="M627.562 51.3474V32.8486H630.286V51.3474H627.562Z" fill="#242424"/>
<path d="M632.546 51.3474V32.8486H635.706L645.521 48.6769L644.905 48.8054V32.8486H647.526V51.3474H644.366L634.551 35.5192L635.167 35.3906V51.3474H632.546Z" fill="#242424"/>
<path d="M658.395 51.6047C656.458 51.6047 654.789 51.2149 653.386 50.4353C651.98 49.6557 650.898 48.5651 650.135 47.1593C649.371 45.7556 648.992 44.1011 648.992 42.1998C648.992 40.2985 649.374 38.6501 650.135 37.2029C650.895 35.7557 651.955 34.6257 653.307 33.8108C654.661 32.9981 656.218 32.5896 657.982 32.5896C659.386 32.5896 660.659 32.8508 661.797 33.3733C662.936 33.8958 663.871 34.6194 664.598 35.5442C665.326 36.4689 665.76 37.5409 665.896 38.7559H663.172C663 37.574 662.453 36.6369 661.528 35.9423C660.603 35.2477 659.446 34.9014 658.059 34.9014C656.792 34.9014 655.687 35.2021 654.744 35.8013C653.802 36.4005 653.068 37.2402 652.546 38.3184C652.023 39.3965 651.762 40.6738 651.762 42.1459C651.762 43.618 652.027 44.9159 652.558 45.9879C653.089 47.0577 653.865 47.8809 654.885 48.4552C655.903 49.0295 657.132 49.3156 658.571 49.3156C659.6 49.3156 660.506 49.1705 661.296 48.8782C662.083 48.5879 662.768 48.1587 663.35 47.5927L665.996 48.5941C665.036 49.5873 663.931 50.3378 662.681 50.8417C661.43 51.3476 660 51.6005 658.391 51.6005L658.395 51.6047ZM663.276 48.5982V42.9192L664.072 43.7154H658.548V41.4533H666V48.5962H663.276V48.5982Z" fill="#242424"/>
<path d="M526.019 78.2082C524.083 78.2082 522.414 77.8184 521.01 77.0388C519.604 76.2592 518.522 75.1686 517.759 73.7628C516.996 72.3591 516.616 70.7046 516.616 68.8033C516.616 66.902 516.998 65.2536 517.759 63.8064C518.52 62.3592 519.579 61.2292 520.931 60.4143C522.285 59.6016 523.842 59.1931 525.607 59.1931C527.01 59.1931 528.283 59.4544 529.422 59.9769C530.56 60.4994 531.495 61.223 532.223 62.1477C532.951 63.0724 533.384 64.1444 533.521 65.3594H530.796C530.624 64.1776 530.077 63.2404 529.152 62.5458C528.227 61.8512 527.07 61.505 525.683 61.505C524.417 61.505 523.311 61.8056 522.368 62.4048C521.427 63.004 520.693 63.8437 520.17 64.9219C519.648 66.0001 519.387 67.2773 519.387 68.7494C519.387 70.2215 519.652 71.5194 520.183 72.5914C520.714 73.6612 521.489 74.4844 522.509 75.0587C523.527 75.633 524.757 75.9192 526.196 75.9192C527.224 75.9192 528.13 75.774 528.92 75.4817C529.708 75.1914 530.392 74.7622 530.975 74.1962L533.62 75.1976C532.66 76.1908 531.555 76.9413 530.305 77.4452C529.055 77.9511 527.624 78.204 526.015 78.204L526.019 78.2082ZM530.902 75.2018V69.5227L531.698 70.3189H526.175V68.0569H533.627V75.1997H530.902V75.2018Z" fill="#242424"/>
<path d="M535.399 77.9512V59.4524H542.696C544.031 59.4524 545.171 59.6701 546.112 60.1076C547.054 60.5451 547.784 61.1526 548.296 61.9322C548.81 62.7118 549.067 63.6323 549.067 64.6939C549.067 65.7555 548.81 66.6802 548.296 67.4681C547.782 68.256 547.054 68.8739 546.112 69.3176C545.171 69.7634 544.031 69.9852 542.696 69.9852H537.454V67.775H542.619C543.853 67.775 544.79 67.5054 545.432 66.9664C546.075 66.4273 546.397 65.6767 546.397 64.7188C546.397 63.7609 546.079 63.0145 545.447 62.4837C544.812 61.9529 543.871 61.6875 542.621 61.6875H538.124V77.9512H535.399ZM546.088 77.9512L537.068 68.6251H540.384L549.994 77.9512H546.088Z" fill="#242424"/>
<path d="M558.831 78.2083C557.512 78.2083 556.303 77.9719 555.208 77.5013C554.112 77.0306 553.162 76.3671 552.355 75.5108C551.551 74.6545 550.921 73.6448 550.467 72.4795C550.013 71.3143 549.786 70.0309 549.786 68.6251C549.786 66.7756 550.172 65.1397 550.943 63.7174C551.715 62.295 552.78 61.1858 554.143 60.3896C555.505 59.5934 557.06 59.1953 558.806 59.1953C560.552 59.1953 562.154 59.5934 563.508 60.3896C564.862 61.1858 565.928 62.295 566.707 63.7174C567.487 65.1397 567.877 66.7839 567.877 68.65C567.877 70.0371 567.649 71.3184 567.197 72.492C566.743 73.6655 566.112 74.6752 565.308 75.5233C564.503 76.3713 563.548 77.0306 562.442 77.5013C561.337 77.9719 560.135 78.2083 558.833 78.2083H558.831ZM558.806 75.8944C560.039 75.8944 561.126 75.5813 562.069 74.9572C563.011 74.3331 563.753 73.4706 564.292 72.3759C564.831 71.279 565.101 70.0205 565.101 68.5981C565.101 67.1758 564.835 65.9566 564.304 64.8847C563.774 63.8148 563.038 62.9834 562.094 62.3925C561.153 61.8016 560.056 61.5071 558.806 61.5071C557.555 61.5071 556.463 61.8016 555.53 62.3925C554.597 62.9834 553.869 63.8107 553.347 64.8723C552.824 65.9338 552.563 67.1758 552.563 68.5981C552.563 70.0205 552.828 71.3039 553.359 72.4007C553.89 73.4976 554.622 74.3539 555.555 74.9697C556.488 75.5855 557.572 75.8944 558.806 75.8944Z" fill="#242424"/>
<path d="M576.535 78.2083C574.172 78.2083 572.355 77.5137 571.089 76.1266C569.82 74.7395 569.187 72.7615 569.187 70.1905V59.4503H571.912V70.4994C571.912 72.2639 572.314 73.6033 573.118 74.5197C573.923 75.4362 575.063 75.8944 576.535 75.8944C578.007 75.8944 579.2 75.4403 580.004 74.5322C580.809 73.624 581.213 72.2805 581.213 70.4973V59.4482H583.937V70.2402C583.937 72.776 583.299 74.7374 582.024 76.1245C580.746 77.5116 578.92 78.2062 576.537 78.2062L576.535 78.2083Z" fill="#242424"/>
<path d="M586.015 77.9512V59.4524H593.852C595.188 59.4524 596.328 59.6742 597.269 60.12C598.211 60.5658 598.934 61.2003 599.44 62.0213C599.946 62.8445 600.199 63.819 600.199 64.951C600.199 66.0831 599.946 67.0887 599.44 67.9181C598.934 68.7495 598.206 69.3964 597.257 69.8587C596.305 70.3211 595.171 70.5533 593.852 70.5533H588.097V68.2913H593.724C594.939 68.2913 595.87 68.001 596.512 67.4184C597.155 66.8357 597.477 66.023 597.477 64.978C597.477 63.933 597.159 63.1016 596.525 62.5376C595.89 61.9716 594.957 61.6896 593.724 61.6896H588.739V77.9533H586.015V77.9512Z" fill="#242424"/>
<path d="M99.2905 30.1637L69.1268 30.1637V0C85.7741 0 99.2905 13.5164 99.2905 30.1637Z" fill="#242424"/>
<path d="M69.1268 63.1885V33.0248H99.2905C99.2905 49.672 85.7741 63.1885 69.1268 63.1885Z" fill="#242424"/>
<path d="M69.1268 96.2114V66.0477H99.2905C99.2905 82.695 85.7741 96.2114 69.1268 96.2114Z" fill="#242424"/>
<path d="M64.7272 30.1637L34.5635 30.1637V0C51.2107 0 64.7272 13.5164 64.7272 30.1637Z" fill="#242424"/>
<path d="M64.7272 63.1864H34.5635V33.0227C51.2107 33.0227 64.7272 46.5391 64.7272 63.1864Z" fill="#242424"/>
<path d="M34.5635 66.0477H64.7272V96.2114C48.0799 96.2114 34.5635 82.695 34.5635 66.0477Z" fill="#242424"/>
<path d="M30.1637 0L30.1637 30.1637L1.24158e-05 30.1637C1.24158e-05 13.5164 13.5164 0 30.1637 0Z" fill="#242424"/>
<path d="M30.1637 33.0227V63.1864H0C0 46.5391 13.5164 33.0227 30.1637 33.0227Z" fill="#242424"/>
<path d="M0 66.0479H30.1637V96.2115C13.5164 96.2115 0 82.6951 0 66.0479Z" fill="#242424"/>
<path d="M181.422 9.74487V80.7979H165.533L134.546 25.5317V80.7979H122.112V9.74487H138.001L168.988 65.009V9.74487H181.422Z" fill="#242424"/>
<path d="M232.245 41.3248C230.206 37.574 227.343 34.663 223.659 32.5917C219.974 30.5203 215.633 29.4836 210.632 29.4836C205.369 29.4836 200.762 30.5867 196.817 32.7907C192.871 34.9947 189.792 38.053 187.59 41.9675C185.386 45.8821 184.285 50.4042 184.285 55.5358C184.285 60.6674 185.388 65.2082 187.59 69.1538C189.794 73.1016 192.888 76.193 196.866 78.4302C200.845 80.6674 205.5 81.7849 210.831 81.7849C216.75 81.7849 221.67 80.404 225.585 77.6402C229.499 74.8764 232.28 71.1277 233.924 66.39H222.18C221.26 68.4302 219.813 69.9438 217.839 70.9307C215.865 71.9177 213.561 72.4111 210.932 72.4111C206.394 72.4111 202.89 70.9805 200.424 68.1192C198.546 65.9401 197.383 63.029 196.935 59.384H234.913C235.046 58.5961 235.143 57.8062 235.21 57.0162C235.276 56.2262 235.309 55.3699 235.309 54.4493C235.309 49.4504 234.289 45.0755 232.251 41.3248H232.245ZM197.13 50.7007C197.679 47.63 198.774 45.1315 200.42 43.2012C202.887 40.3067 206.226 38.8595 210.437 38.8595C214.318 38.8595 217.343 40.0455 219.514 42.4133C221.307 44.3685 222.359 47.1323 222.672 50.7027H197.13V50.7007Z" fill="#242424"/>
<path d="M283.167 80.798H269.054L256.972 63.2509L244.283 80.798H230.567L250.781 54.6007L232.639 30.4685H246.752L257.561 46.2263L268.66 30.4685H282.475L263.802 54.949L283.167 80.798Z" fill="#242424"/>
<path d="M345.978 26.3735C342.788 21.078 338.297 16.9831 332.508 14.0866C326.717 11.1921 319.943 9.74487 312.18 9.74487H286.028V80.7979H312.28C319.976 80.7979 326.702 79.3196 332.46 76.3588C338.216 73.398 342.707 69.2367 345.929 63.8749C349.153 58.5131 350.766 52.2452 350.766 45.0754C350.766 37.9057 349.171 31.671 345.978 26.3735ZM334.728 58.2C332.721 62.0814 329.81 65.1065 325.995 67.2794C322.18 69.4502 317.575 70.5367 312.18 70.5367H298.859V20.0082H312.18C317.641 20.0082 322.263 21.0449 326.045 23.1162C329.829 25.1875 332.721 28.1006 334.728 31.8514C336.735 35.6021 337.739 39.9417 337.739 44.8785C337.739 49.8152 336.735 54.3186 334.728 58.2Z" fill="#242424"/>
<path d="M402.574 30.4685L372.474 101.028H359.841L370.08 78.0736L350.567 30.4685H364.087L376.714 63.8999L389.35 30.4685H402.574Z" fill="#242424"/>
<path d="M451.522 46.4564V80.8001H438.989V49.0254C438.989 45.9339 438.199 43.5972 436.621 42.0194C435.041 40.4394 432.739 39.6516 429.714 39.6516C427.081 39.6516 424.728 40.2445 422.657 41.4284C420.585 42.6124 418.974 44.2566 417.821 46.361C416.671 48.4676 416.094 50.8997 416.094 53.6635V80.8021H403.66V30.4727H415.798V39.7324C417.436 36.9188 419.607 34.6049 422.312 32.7949C425.601 30.5908 429.549 29.4878 434.156 29.4878C439.615 29.4878 443.876 31.0345 446.934 34.126C449.992 37.2174 451.524 41.3289 451.524 46.4606L451.522 46.4564Z" fill="#242424"/>
<path d="M502.146 41.3248C500.106 37.574 497.245 34.663 493.56 32.5917C489.876 30.5203 485.534 29.4836 480.533 29.4836C475.271 29.4836 470.664 30.5867 466.718 32.7907C462.772 34.9947 459.693 38.053 457.491 41.9675C455.287 45.8821 454.187 50.4042 454.187 55.5358C454.187 60.6674 455.29 65.2082 457.491 69.1538C459.696 73.1016 462.787 76.193 466.768 78.4302C470.747 80.6674 475.401 81.7849 480.732 81.7849C486.652 81.7849 491.57 80.404 495.486 77.6402C499.401 74.8764 502.181 71.1277 503.826 66.39H492.082C491.161 68.4302 489.712 69.9438 487.74 70.9307C485.766 71.9177 483.463 72.4111 480.834 72.4111C476.295 72.4111 472.791 70.9805 470.324 68.1192C468.447 65.9401 467.284 63.029 466.834 59.384H504.812C504.945 58.5961 505.043 57.8062 505.109 57.0162C505.175 56.2262 505.208 55.3699 505.208 54.4493C505.208 49.4504 504.188 45.0755 502.15 41.3248H502.146ZM467.031 50.7007C467.581 47.63 468.675 45.1315 470.32 43.2012C472.787 40.3067 476.125 38.8595 480.336 38.8595C484.217 38.8595 487.243 40.0455 489.413 42.4133C491.207 44.3685 492.258 47.1323 492.571 50.7027H467.029L467.031 50.7007Z" fill="#242424"/>
</svg>
