<svg width="5879" height="6442" viewBox="0 0 5879 6442" fill="none" xmlns="http://www.w3.org/2000/svg">
<path d="M335.895 0V335.895H-0.000150952C-0.000150952 150.51 150.51 0 335.895 0Z" fill="#E04C2C"/>
<path d="M731.789 0V335.895H395.894C395.894 150.51 546.404 0 731.789 0Z" fill="#E04C2C"/>
<path d="M1127.68 0V335.895H791.789C791.789 150.51 942.299 0 1127.68 0Z" fill="#E04C2C"/>
<path d="M1523.58 0V335.895H1187.68C1187.68 150.51 1338.19 0 1523.58 0Z" fill="#E04C2C"/>
<path d="M1919.47 0V335.895H1583.58C1583.58 150.51 1734.09 0 1919.47 0Z" fill="#E04C2C"/>
<path d="M2315.37 0V335.895H1979.47C1979.47 150.51 2129.98 0 2315.37 0Z" fill="#E04C2C"/>
<path d="M2711.26 0V335.895H2375.37C2375.37 150.51 2525.88 0 2711.26 0Z" fill="#E04C2C"/>
<path d="M3107.16 0V335.895H2771.26C2771.26 150.51 2921.77 0 3107.16 0Z" fill="#E04C2C"/>
<path d="M3503.05 0V335.895H3167.16C3167.16 150.51 3317.67 0 3503.05 0Z" fill="#E04C2C"/>
<path d="M3898.95 0V335.895H3563.05C3563.05 150.51 3713.56 0 3898.95 0Z" fill="#E04C2C"/>
<path d="M4294.84 0V335.895H3958.95C3958.95 150.51 4109.46 0 4294.84 0Z" fill="#E04C2C"/>
<path d="M4690.73 0V335.895H4354.84C4354.84 150.51 4505.35 0 4690.73 0Z" fill="#E04C2C"/>
<path d="M5086.63 0V335.895H4750.73C4750.73 150.51 4901.24 0 5086.63 0Z" fill="#E04C2C"/>
<path d="M5482.52 0V335.895H5146.63C5146.63 150.51 5297.14 0 5482.52 0Z" fill="#E04C2C"/>
<path d="M5878.42 0V335.895H5542.52C5542.52 150.51 5693.03 0 5878.42 0Z" fill="#E04C2C"/>
<path d="M335.895 435.895V771.789H-0.000150952C-0.000150952 586.405 150.51 435.895 335.895 435.895Z" fill="#E04C2C"/>
<path d="M731.789 435.895V771.789H395.894C395.894 586.405 546.404 435.895 731.789 435.895Z" fill="#E04C2C"/>
<path d="M1127.68 435.895V771.789H791.789C791.789 586.405 942.299 435.895 1127.68 435.895Z" fill="#E04C2C"/>
<path d="M1523.58 435.895V771.789H1187.68C1187.68 586.405 1338.19 435.895 1523.58 435.895Z" fill="#E04C2C"/>
<path d="M1919.47 435.895V771.789H1583.58C1583.58 586.405 1734.09 435.895 1919.47 435.895Z" fill="#E04C2C"/>
<path d="M2315.37 435.895V771.789H1979.47C1979.47 586.405 2129.98 435.895 2315.37 435.895Z" fill="#E04C2C"/>
<path d="M2711.26 435.895V771.789H2375.37C2375.37 586.405 2525.88 435.895 2711.26 435.895Z" fill="#E04C2C"/>
<path d="M3107.16 435.895V771.789H2771.26C2771.26 586.405 2921.77 435.895 3107.16 435.895Z" fill="#E04C2C"/>
<path d="M3503.05 435.895V771.789H3167.16C3167.16 586.405 3317.67 435.895 3503.05 435.895Z" fill="#E04C2C"/>
<path d="M3898.95 435.895V771.789H3563.05C3563.05 586.405 3713.56 435.895 3898.95 435.895Z" fill="#E04C2C"/>
<path d="M4294.84 435.895V771.789H3958.95C3958.95 586.405 4109.46 435.895 4294.84 435.895Z" fill="#E04C2C"/>
<path d="M4690.73 435.895V771.789H4354.84C4354.84 586.405 4505.35 435.895 4690.73 435.895Z" fill="#E04C2C"/>
<path d="M5086.63 435.895V771.789H4750.73C4750.73 586.405 4901.24 435.895 5086.63 435.895Z" fill="#E04C2C"/>
<path d="M5482.52 435.895V771.789H5146.63C5146.63 586.405 5297.14 435.895 5482.52 435.895Z" fill="#E04C2C"/>
<path d="M5878.42 435.895V771.789H5542.52C5542.52 586.405 5693.03 435.895 5878.42 435.895Z" fill="#E04C2C"/>
<path d="M335.895 872V1207.89H-0.000150952C-0.000150952 1022.51 150.51 872 335.895 872Z" fill="#E04C2C"/>
<path d="M731.789 872V1207.89H395.894C395.894 1022.51 546.404 872 731.789 872Z" fill="#E04C2C"/>
<path d="M1127.68 872V1207.89H791.789C791.789 1022.51 942.299 872 1127.68 872Z" fill="#E04C2C"/>
<path d="M1523.58 872V1207.89H1187.68C1187.68 1022.51 1338.19 872 1523.58 872Z" fill="#E04C2C"/>
<path d="M1919.47 872V1207.89H1583.58C1583.58 1022.51 1734.09 872 1919.47 872Z" fill="#E04C2C"/>
<path d="M2315.37 872V1207.89H1979.47C1979.47 1022.51 2129.98 872 2315.37 872Z" fill="#E04C2C"/>
<path d="M2711.26 872V1207.89H2375.37C2375.37 1022.51 2525.88 872 2711.26 872Z" fill="#E04C2C"/>
<path d="M3107.16 872V1207.89H2771.26C2771.26 1022.51 2921.77 872 3107.16 872Z" fill="#E04C2C"/>
<path d="M3503.05 872V1207.89H3167.16C3167.16 1022.51 3317.67 872 3503.05 872Z" fill="#E04C2C"/>
<path d="M3898.95 872V1207.89H3563.05C3563.05 1022.51 3713.56 872 3898.95 872Z" fill="#E04C2C"/>
<path d="M4294.84 872V1207.89H3958.95C3958.95 1022.51 4109.46 872 4294.84 872Z" fill="#E04C2C"/>
<path d="M4690.73 872V1207.89H4354.84C4354.84 1022.51 4505.35 872 4690.73 872Z" fill="#E04C2C"/>
<path d="M5086.63 872V1207.89H4750.73C4750.73 1022.51 4901.24 872 5086.63 872Z" fill="#E04C2C"/>
<path d="M5482.52 872V1207.89H5146.63C5146.63 1022.51 5297.14 872 5482.52 872Z" fill="#E04C2C"/>
<path d="M5878.42 872V1207.89H5542.52C5542.52 1022.51 5693.03 872 5878.42 872Z" fill="#E04C2C"/>
<path d="M335.895 1308.11V1644H-0.000150952C-0.000150952 1458.62 150.51 1308.11 335.895 1308.11Z" fill="#E04C2C"/>
<path d="M731.789 1308.11V1644H395.894C395.894 1458.62 546.404 1308.11 731.789 1308.11Z" fill="#E04C2C"/>
<path d="M1127.68 1308.11V1644H791.789C791.789 1458.62 942.299 1308.11 1127.68 1308.11Z" fill="#E04C2C"/>
<path d="M1523.58 1308.11V1644H1187.68C1187.68 1458.62 1338.19 1308.11 1523.58 1308.11Z" fill="#E04C2C"/>
<path d="M1919.47 1308.11V1644H1583.58C1583.58 1458.62 1734.09 1308.11 1919.47 1308.11Z" fill="#E04C2C"/>
<path d="M2315.37 1308.11V1644H1979.47C1979.47 1458.62 2129.98 1308.11 2315.37 1308.11Z" fill="#E04C2C"/>
<path d="M2711.26 1308.11V1644H2375.37C2375.37 1458.62 2525.88 1308.11 2711.26 1308.11Z" fill="#E04C2C"/>
<path d="M3107.16 1308.11V1644H2771.26C2771.26 1458.62 2921.77 1308.11 3107.16 1308.11Z" fill="#E04C2C"/>
<path d="M3503.05 1308.11V1644H3167.16C3167.16 1458.62 3317.67 1308.11 3503.05 1308.11Z" fill="#E04C2C"/>
<path d="M3898.95 1308.11V1644H3563.05C3563.05 1458.62 3713.56 1308.11 3898.95 1308.11Z" fill="#E04C2C"/>
<path d="M4294.84 1308.11V1644H3958.95C3958.95 1458.62 4109.46 1308.11 4294.84 1308.11Z" fill="#E04C2C"/>
<path d="M4690.73 1308.11V1644H4354.84C4354.84 1458.62 4505.35 1308.11 4690.73 1308.11Z" fill="#E04C2C"/>
<path d="M5086.63 1308.11V1644H4750.73C4750.73 1458.62 4901.24 1308.11 5086.63 1308.11Z" fill="#E04C2C"/>
<path d="M5482.52 1308.11V1644H5146.63C5146.63 1458.62 5297.14 1308.11 5482.52 1308.11Z" fill="#E04C2C"/>
<path d="M5878.42 1308.11V1644H5542.52C5542.52 1458.62 5693.03 1308.11 5878.42 1308.11Z" fill="#E04C2C"/>
<path d="M335.895 1744.21V2080.11H-0.000150952C-0.000150952 1894.72 150.51 1744.21 335.895 1744.21Z" fill="#E04C2C"/>
<path d="M731.789 1744.21V2080.11H395.894C395.894 1894.72 546.404 1744.21 731.789 1744.21Z" fill="#E04C2C"/>
<path d="M1127.68 1744.21V2080.11H791.789C791.789 1894.72 942.299 1744.21 1127.68 1744.21Z" fill="#E04C2C"/>
<path d="M1523.58 1744.21V2080.11H1187.68C1187.68 1894.72 1338.19 1744.21 1523.58 1744.21Z" fill="#E04C2C"/>
<path d="M1919.47 1744.21V2080.11H1583.58C1583.58 1894.72 1734.09 1744.21 1919.47 1744.21Z" fill="#E04C2C"/>
<path d="M2315.37 1744.21V2080.11H1979.47C1979.47 1894.72 2129.98 1744.21 2315.37 1744.21Z" fill="#E04C2C"/>
<path d="M2711.26 1744.21V2080.11H2375.37C2375.37 1894.72 2525.88 1744.21 2711.26 1744.21Z" fill="#E04C2C"/>
<path d="M3107.16 1744.21V2080.11H2771.26C2771.26 1894.72 2921.77 1744.21 3107.16 1744.21Z" fill="#E04C2C"/>
<path d="M3503.05 1744.21V2080.11H3167.16C3167.16 1894.72 3317.67 1744.21 3503.05 1744.21Z" fill="#E04C2C"/>
<path d="M3898.95 1744.21V2080.11H3563.05C3563.05 1894.72 3713.56 1744.21 3898.95 1744.21Z" fill="#E04C2C"/>
<path d="M4294.84 1744.21V2080.11H3958.95C3958.95 1894.72 4109.46 1744.21 4294.84 1744.21Z" fill="#E04C2C"/>
<path d="M4690.73 1744.21V2080.11H4354.84C4354.84 1894.72 4505.35 1744.21 4690.73 1744.21Z" fill="#E04C2C"/>
<path d="M5086.63 1744.21V2080.11H4750.73C4750.73 1894.72 4901.24 1744.21 5086.63 1744.21Z" fill="#E04C2C"/>
<path d="M5482.52 1744.21V2080.11H5146.63C5146.63 1894.72 5297.14 1744.21 5482.52 1744.21Z" fill="#E04C2C"/>
<path d="M5878.42 1744.21V2080.11H5542.52C5542.52 1894.72 5693.03 1744.21 5878.42 1744.21Z" fill="#E04C2C"/>
<path d="M335.895 2180.32V2516.21H-0.000150952C-0.000150952 2330.83 150.51 2180.32 335.895 2180.32Z" fill="#E04C2C"/>
<path d="M731.789 2180.32V2516.21H395.894C395.894 2330.83 546.404 2180.32 731.789 2180.32Z" fill="#E04C2C"/>
<path d="M1127.68 2180.32V2516.21H791.789C791.789 2330.83 942.299 2180.32 1127.68 2180.32Z" fill="#E04C2C"/>
<path d="M1523.58 2180.32V2516.21H1187.68C1187.68 2330.83 1338.19 2180.32 1523.58 2180.32Z" fill="#E04C2C"/>
<path d="M1919.47 2180.32V2516.21H1583.58C1583.58 2330.83 1734.09 2180.32 1919.47 2180.32Z" fill="#E04C2C"/>
<path d="M2315.37 2180.32V2516.21H1979.47C1979.47 2330.83 2129.98 2180.32 2315.37 2180.32Z" fill="#E04C2C"/>
<path d="M2711.26 2180.32V2516.21H2375.37C2375.37 2330.83 2525.88 2180.32 2711.26 2180.32Z" fill="#E04C2C"/>
<path d="M3107.16 2180.32V2516.21H2771.26C2771.26 2330.83 2921.77 2180.32 3107.16 2180.32Z" fill="#E04C2C"/>
<path d="M3503.05 2180.32V2516.21H3167.16C3167.16 2330.83 3317.67 2180.32 3503.05 2180.32Z" fill="#E04C2C"/>
<path d="M3898.95 2180.32V2516.21H3563.05C3563.05 2330.83 3713.56 2180.32 3898.95 2180.32Z" fill="#E04C2C"/>
<path d="M4294.84 2180.32V2516.21H3958.95C3958.95 2330.83 4109.46 2180.32 4294.84 2180.32Z" fill="#E04C2C"/>
<path d="M4690.73 2180.32V2516.21H4354.84C4354.84 2330.83 4505.35 2180.32 4690.73 2180.32Z" fill="#E04C2C"/>
<path d="M5086.63 2180.32V2516.21H4750.73C4750.73 2330.83 4901.24 2180.32 5086.63 2180.32Z" fill="#E04C2C"/>
<path d="M5482.52 2180.32V2516.21H5146.63C5146.63 2330.83 5297.14 2180.32 5482.52 2180.32Z" fill="#E04C2C"/>
<path d="M5878.42 2180.32V2516.21H5542.52C5542.52 2330.83 5693.03 2180.32 5878.42 2180.32Z" fill="#E04C2C"/>
<path d="M335.895 2616.42V2952.32H-0.000150952C-0.000150952 2766.93 150.51 2616.42 335.895 2616.42Z" fill="#E04C2C"/>
<path d="M731.789 2616.42V2952.32H395.894C395.894 2766.93 546.404 2616.42 731.789 2616.42Z" fill="#E04C2C"/>
<path d="M1127.68 2616.42V2952.32H791.789C791.789 2766.93 942.299 2616.42 1127.68 2616.42Z" fill="#E04C2C"/>
<path d="M1523.58 2616.42V2952.32H1187.68C1187.68 2766.93 1338.19 2616.42 1523.58 2616.42Z" fill="#E04C2C"/>
<path d="M1919.47 2616.42V2952.32H1583.58C1583.58 2766.93 1734.09 2616.42 1919.47 2616.42Z" fill="#E04C2C"/>
<path d="M2315.37 2616.42V2952.32H1979.47C1979.47 2766.93 2129.98 2616.42 2315.37 2616.42Z" fill="#E04C2C"/>
<path d="M2711.26 2616.42V2952.32H2375.37C2375.37 2766.93 2525.88 2616.42 2711.26 2616.42Z" fill="#E04C2C"/>
<path d="M3107.16 2616.42V2952.32H2771.26C2771.26 2766.93 2921.77 2616.42 3107.16 2616.42Z" fill="#E04C2C"/>
<path d="M3503.05 2616.42V2952.32H3167.16C3167.16 2766.93 3317.67 2616.42 3503.05 2616.42Z" fill="#E04C2C"/>
<path d="M3898.95 2616.42V2952.32H3563.05C3563.05 2766.93 3713.56 2616.42 3898.95 2616.42Z" fill="#E04C2C"/>
<path d="M4294.84 2616.42V2952.32H3958.95C3958.95 2766.93 4109.46 2616.42 4294.84 2616.42Z" fill="#E04C2C"/>
<path d="M4690.73 2616.42V2952.32H4354.84C4354.84 2766.93 4505.35 2616.42 4690.73 2616.42Z" fill="#E04C2C"/>
<path d="M5086.63 2616.42V2952.32H4750.73C4750.73 2766.93 4901.24 2616.42 5086.63 2616.42Z" fill="#E04C2C"/>
<path d="M5482.52 2616.42V2952.32H5146.63C5146.63 2766.93 5297.14 2616.42 5482.52 2616.42Z" fill="#E04C2C"/>
<path d="M5878.42 2616.42V2952.32H5542.52C5542.52 2766.93 5693.03 2616.42 5878.42 2616.42Z" fill="#E04C2C"/>
<path d="M335.895 3052.53V3388.42H-0.000150952C-0.000150952 3203.04 150.51 3052.53 335.895 3052.53Z" fill="#E04C2C"/>
<path d="M731.789 3052.53V3388.42H395.894C395.894 3203.04 546.404 3052.53 731.789 3052.53Z" fill="#E04C2C"/>
<path d="M1127.68 3052.53V3388.42H791.789C791.789 3203.04 942.299 3052.53 1127.68 3052.53Z" fill="#E04C2C"/>
<path d="M1523.58 3052.53V3388.42H1187.68C1187.68 3203.04 1338.19 3052.53 1523.58 3052.53Z" fill="#E04C2C"/>
<path d="M1919.47 3052.53V3388.42H1583.58C1583.58 3203.04 1734.09 3052.53 1919.47 3052.53Z" fill="#E04C2C"/>
<path d="M2315.37 3052.53V3388.42H1979.47C1979.47 3203.04 2129.98 3052.53 2315.37 3052.53Z" fill="#E04C2C"/>
<path d="M2711.26 3052.53V3388.42H2375.37C2375.37 3203.04 2525.88 3052.53 2711.26 3052.53Z" fill="#E04C2C"/>
<path d="M3107.16 3052.53V3388.42H2771.26C2771.26 3203.04 2921.77 3052.53 3107.16 3052.53Z" fill="#E04C2C"/>
<path d="M3503.05 3052.53V3388.42H3167.16C3167.16 3203.04 3317.67 3052.53 3503.05 3052.53Z" fill="#E04C2C"/>
<path d="M3898.95 3052.53V3388.42H3563.05C3563.05 3203.04 3713.56 3052.53 3898.95 3052.53Z" fill="#E04C2C"/>
<path d="M4294.84 3052.53V3388.42H3958.95C3958.95 3203.04 4109.46 3052.53 4294.84 3052.53Z" fill="#E04C2C"/>
<path d="M4690.73 3052.53V3388.42H4354.84C4354.84 3203.04 4505.35 3052.53 4690.73 3052.53Z" fill="#E04C2C"/>
<path d="M5086.63 3052.53V3388.42H4750.73C4750.73 3203.04 4901.24 3052.53 5086.63 3052.53Z" fill="#E04C2C"/>
<path d="M5482.52 3052.53V3388.42H5146.63C5146.63 3203.04 5297.14 3052.53 5482.52 3052.53Z" fill="#E04C2C"/>
<path d="M5878.42 3052.53V3388.42H5542.52C5542.52 3203.04 5693.03 3052.53 5878.42 3052.53Z" fill="#E04C2C"/>
<path d="M335.895 3488.63V3824.53H-0.000150952C-0.000150952 3639.14 150.51 3488.63 335.895 3488.63Z" fill="#E04C2C"/>
<path d="M731.789 3488.63V3824.53H395.894C395.894 3639.14 546.404 3488.63 731.789 3488.63Z" fill="#E04C2C"/>
<path d="M1127.68 3488.63V3824.53H791.789C791.789 3639.14 942.299 3488.63 1127.68 3488.63Z" fill="#E04C2C"/>
<path d="M1523.58 3488.63V3824.53H1187.68C1187.68 3639.14 1338.19 3488.63 1523.58 3488.63Z" fill="#E04C2C"/>
<path d="M1919.47 3488.63V3824.53H1583.58C1583.58 3639.14 1734.09 3488.63 1919.47 3488.63Z" fill="#E04C2C"/>
<path d="M2315.37 3488.63V3824.53H1979.47C1979.47 3639.14 2129.98 3488.63 2315.37 3488.63Z" fill="#E04C2C"/>
<path d="M2711.26 3488.63V3824.53H2375.37C2375.37 3639.14 2525.88 3488.63 2711.26 3488.63Z" fill="#E04C2C"/>
<path d="M3107.16 3488.63V3824.53H2771.26C2771.26 3639.14 2921.77 3488.63 3107.16 3488.63Z" fill="#E04C2C"/>
<path d="M3503.05 3488.63V3824.53H3167.16C3167.16 3639.14 3317.67 3488.63 3503.05 3488.63Z" fill="#E04C2C"/>
<path d="M3898.95 3488.63V3824.53H3563.05C3563.05 3639.14 3713.56 3488.63 3898.95 3488.63Z" fill="#E04C2C"/>
<path d="M4294.84 3488.63V3824.53H3958.95C3958.95 3639.14 4109.46 3488.63 4294.84 3488.63Z" fill="#E04C2C"/>
<path d="M4690.73 3488.63V3824.53H4354.84C4354.84 3639.14 4505.35 3488.63 4690.73 3488.63Z" fill="#E04C2C"/>
<path d="M5086.63 3488.63V3824.53H4750.73C4750.73 3639.14 4901.24 3488.63 5086.63 3488.63Z" fill="#E04C2C"/>
<path d="M5482.52 3488.63V3824.53H5146.63C5146.63 3639.14 5297.14 3488.63 5482.52 3488.63Z" fill="#E04C2C"/>
<path d="M5878.42 3488.63V3824.53H5542.52C5542.52 3639.14 5693.03 3488.63 5878.42 3488.63Z" fill="#E04C2C"/>
<path d="M335.895 3924.74V4260.63H-0.000150952C-0.000150952 4075.25 150.51 3924.74 335.895 3924.74Z" fill="#E04C2C"/>
<path d="M731.789 3924.74V4260.63H395.894C395.894 4075.25 546.404 3924.74 731.789 3924.74Z" fill="#E04C2C"/>
<path d="M1127.68 3924.74V4260.63H791.789C791.789 4075.25 942.299 3924.74 1127.68 3924.74Z" fill="#E04C2C"/>
<path d="M1523.58 3924.74V4260.63H1187.68C1187.68 4075.25 1338.19 3924.74 1523.58 3924.74Z" fill="#E04C2C"/>
<path d="M1919.47 3924.74V4260.63H1583.58C1583.58 4075.25 1734.09 3924.74 1919.47 3924.74Z" fill="#E04C2C"/>
<path d="M2315.37 3924.74V4260.63H1979.47C1979.47 4075.25 2129.98 3924.74 2315.37 3924.74Z" fill="#E04C2C"/>
<path d="M2711.26 3924.74V4260.63H2375.37C2375.37 4075.25 2525.88 3924.74 2711.26 3924.74Z" fill="#E04C2C"/>
<path d="M3107.16 3924.74V4260.63H2771.26C2771.26 4075.25 2921.77 3924.74 3107.16 3924.74Z" fill="#E04C2C"/>
<path d="M3503.05 3924.74V4260.63H3167.16C3167.16 4075.25 3317.67 3924.74 3503.05 3924.74Z" fill="#E04C2C"/>
<path d="M3898.95 3924.74V4260.63H3563.05C3563.05 4075.25 3713.56 3924.74 3898.95 3924.74Z" fill="#E04C2C"/>
<path d="M4294.84 3924.74V4260.63H3958.95C3958.95 4075.25 4109.46 3924.74 4294.84 3924.74Z" fill="#E04C2C"/>
<path d="M4690.73 3924.74V4260.63H4354.84C4354.84 4075.25 4505.35 3924.74 4690.73 3924.74Z" fill="#E04C2C"/>
<path d="M5086.63 3924.74V4260.63H4750.73C4750.73 4075.25 4901.24 3924.74 5086.63 3924.74Z" fill="#E04C2C"/>
<path d="M5482.52 3924.74V4260.63H5146.63C5146.63 4075.25 5297.14 3924.74 5482.52 3924.74Z" fill="#E04C2C"/>
<path d="M5878.42 3924.74V4260.63H5542.52C5542.52 4075.25 5693.03 3924.74 5878.42 3924.74Z" fill="#E04C2C"/>
<path d="M335.895 4360.84V4696.74H-0.000150952C-0.000150952 4511.35 150.51 4360.84 335.895 4360.84Z" fill="#E04C2C"/>
<path d="M731.789 4360.84V4696.74H395.894C395.894 4511.35 546.404 4360.84 731.789 4360.84Z" fill="#E04C2C"/>
<path d="M1127.68 4360.84V4696.74H791.789C791.789 4511.35 942.299 4360.84 1127.68 4360.84Z" fill="#E04C2C"/>
<path d="M1523.58 4360.84V4696.74H1187.68C1187.68 4511.35 1338.19 4360.84 1523.58 4360.84Z" fill="#E04C2C"/>
<path d="M1919.47 4360.84V4696.74H1583.58C1583.58 4511.35 1734.09 4360.84 1919.47 4360.84Z" fill="#E04C2C"/>
<path d="M2315.37 4360.84V4696.74H1979.47C1979.47 4511.35 2129.98 4360.84 2315.37 4360.84Z" fill="#E04C2C"/>
<path d="M2711.26 4360.84V4696.74H2375.37C2375.37 4511.35 2525.88 4360.84 2711.26 4360.84Z" fill="#E04C2C"/>
<path d="M3107.16 4360.84V4696.74H2771.26C2771.26 4511.35 2921.77 4360.84 3107.16 4360.84Z" fill="#E04C2C"/>
<path d="M3503.05 4360.84V4696.74H3167.16C3167.16 4511.35 3317.67 4360.84 3503.05 4360.84Z" fill="#E04C2C"/>
<path d="M3898.95 4360.84V4696.74H3563.05C3563.05 4511.35 3713.56 4360.84 3898.95 4360.84Z" fill="#E04C2C"/>
<path d="M4294.84 4360.84V4696.74H3958.95C3958.95 4511.35 4109.46 4360.84 4294.84 4360.84Z" fill="#E04C2C"/>
<path d="M4690.73 4360.84V4696.74H4354.84C4354.84 4511.35 4505.35 4360.84 4690.73 4360.84Z" fill="#E04C2C"/>
<path d="M5086.63 4360.84V4696.74H4750.73C4750.73 4511.35 4901.24 4360.84 5086.63 4360.84Z" fill="#E04C2C"/>
<path d="M5482.52 4360.84V4696.74H5146.63C5146.63 4511.35 5297.14 4360.84 5482.52 4360.84Z" fill="#E04C2C"/>
<path d="M5878.42 4360.84V4696.74H5542.52C5542.52 4511.35 5693.03 4360.84 5878.42 4360.84Z" fill="#E04C2C"/>
<path d="M335.895 4796.95V5132.84H-0.000150952C-0.000150952 4947.46 150.51 4796.95 335.895 4796.95Z" fill="#E04C2C"/>
<path d="M731.789 4796.95V5132.84H395.894C395.894 4947.46 546.404 4796.95 731.789 4796.95Z" fill="#E04C2C"/>
<path d="M1127.68 4796.95V5132.84H791.789C791.789 4947.46 942.299 4796.95 1127.68 4796.95Z" fill="#E04C2C"/>
<path d="M1523.58 4796.95V5132.84H1187.68C1187.68 4947.46 1338.19 4796.95 1523.58 4796.95Z" fill="#E04C2C"/>
<path d="M1919.47 4796.95V5132.84H1583.58C1583.58 4947.46 1734.09 4796.95 1919.47 4796.95Z" fill="#E04C2C"/>
<path d="M2315.37 4796.95V5132.84H1979.47C1979.47 4947.46 2129.98 4796.95 2315.37 4796.95Z" fill="#E04C2C"/>
<path d="M2711.26 4796.95V5132.84H2375.37C2375.37 4947.46 2525.88 4796.95 2711.26 4796.95Z" fill="#E04C2C"/>
<path d="M3107.16 4796.95V5132.84H2771.26C2771.26 4947.46 2921.77 4796.95 3107.16 4796.95Z" fill="#E04C2C"/>
<path d="M3503.05 4796.95V5132.84H3167.16C3167.16 4947.46 3317.67 4796.95 3503.05 4796.95Z" fill="#E04C2C"/>
<path d="M3898.95 4796.95V5132.84H3563.05C3563.05 4947.46 3713.56 4796.95 3898.95 4796.95Z" fill="#E04C2C"/>
<path d="M4294.84 4796.95V5132.84H3958.95C3958.95 4947.46 4109.46 4796.95 4294.84 4796.95Z" fill="#E04C2C"/>
<path d="M4690.73 4796.95V5132.84H4354.84C4354.84 4947.46 4505.35 4796.95 4690.73 4796.95Z" fill="#E04C2C"/>
<path d="M5086.63 4796.95V5132.84H4750.73C4750.73 4947.46 4901.24 4796.95 5086.63 4796.95Z" fill="#E04C2C"/>
<path d="M5482.52 4796.95V5132.84H5146.63C5146.63 4947.46 5297.14 4796.95 5482.52 4796.95Z" fill="#E04C2C"/>
<path d="M5878.42 4796.95V5132.84H5542.52C5542.52 4947.46 5693.03 4796.95 5878.42 4796.95Z" fill="#E04C2C"/>
<path d="M335.895 5233.05V5568.95H-0.000150952C-0.000150952 5383.56 150.51 5233.05 335.895 5233.05Z" fill="#E04C2C"/>
<path d="M731.789 5233.05V5568.95H395.894C395.894 5383.56 546.404 5233.05 731.789 5233.05Z" fill="#E04C2C"/>
<path d="M1127.68 5233.05V5568.95H791.789C791.789 5383.56 942.299 5233.05 1127.68 5233.05Z" fill="#E04C2C"/>
<path d="M1523.58 5233.05V5568.95H1187.68C1187.68 5383.56 1338.19 5233.05 1523.58 5233.05Z" fill="#E04C2C"/>
<path d="M1919.47 5233.05V5568.95H1583.58C1583.58 5383.56 1734.09 5233.05 1919.47 5233.05Z" fill="#E04C2C"/>
<path d="M2315.37 5233.05V5568.95H1979.47C1979.47 5383.56 2129.98 5233.05 2315.37 5233.05Z" fill="#E04C2C"/>
<path d="M2711.26 5233.05V5568.95H2375.37C2375.37 5383.56 2525.88 5233.05 2711.26 5233.05Z" fill="#E04C2C"/>
<path d="M3107.16 5233.05V5568.95H2771.26C2771.26 5383.56 2921.77 5233.05 3107.16 5233.05Z" fill="#E04C2C"/>
<path d="M3503.05 5233.05V5568.95H3167.16C3167.16 5383.56 3317.67 5233.05 3503.05 5233.05Z" fill="#E04C2C"/>
<path d="M3898.95 5233.05V5568.95H3563.05C3563.05 5383.56 3713.56 5233.05 3898.95 5233.05Z" fill="#E04C2C"/>
<path d="M4294.84 5233.05V5568.95H3958.95C3958.95 5383.56 4109.46 5233.05 4294.84 5233.05Z" fill="#E04C2C"/>
<path d="M4690.73 5233.05V5568.95H4354.84C4354.84 5383.56 4505.35 5233.05 4690.73 5233.05Z" fill="#E04C2C"/>
<path d="M5086.63 5233.05V5568.95H4750.73C4750.73 5383.56 4901.24 5233.05 5086.63 5233.05Z" fill="#E04C2C"/>
<path d="M5482.52 5233.05V5568.95H5146.63C5146.63 5383.56 5297.14 5233.05 5482.52 5233.05Z" fill="#E04C2C"/>
<path d="M5878.42 5233.05V5568.95H5542.52C5542.52 5383.56 5693.03 5233.05 5878.42 5233.05Z" fill="#E04C2C"/>
<path d="M335.895 5669.16V6005.05H-0.000150952C-0.000150952 5819.67 150.51 5669.16 335.895 5669.16Z" fill="#E04C2C"/>
<path d="M731.789 5669.16V6005.05H395.894C395.894 5819.67 546.404 5669.16 731.789 5669.16Z" fill="#E04C2C"/>
<path d="M1127.68 5669.16V6005.05H791.789C791.789 5819.67 942.299 5669.16 1127.68 5669.16Z" fill="#E04C2C"/>
<path d="M1523.58 5669.16V6005.05H1187.68C1187.68 5819.67 1338.19 5669.16 1523.58 5669.16Z" fill="#E04C2C"/>
<path d="M1919.47 5669.16V6005.05H1583.58C1583.58 5819.67 1734.09 5669.16 1919.47 5669.16Z" fill="#E04C2C"/>
<path d="M2315.37 5669.16V6005.05H1979.47C1979.47 5819.67 2129.98 5669.16 2315.37 5669.16Z" fill="#E04C2C"/>
<path d="M2711.26 5669.16V6005.05H2375.37C2375.37 5819.67 2525.88 5669.16 2711.26 5669.16Z" fill="#E04C2C"/>
<path d="M3107.16 5669.16V6005.05H2771.26C2771.26 5819.67 2921.77 5669.16 3107.16 5669.16Z" fill="#E04C2C"/>
<path d="M3503.05 5669.16V6005.05H3167.16C3167.16 5819.67 3317.67 5669.16 3503.05 5669.16Z" fill="#E04C2C"/>
<path d="M3898.95 5669.16V6005.05H3563.05C3563.05 5819.67 3713.56 5669.16 3898.95 5669.16Z" fill="#E04C2C"/>
<path d="M4294.84 5669.16V6005.05H3958.95C3958.95 5819.67 4109.46 5669.16 4294.84 5669.16Z" fill="#E04C2C"/>
<path d="M4690.73 5669.16V6005.05H4354.84C4354.84 5819.67 4505.35 5669.16 4690.73 5669.16Z" fill="#E04C2C"/>
<path d="M5086.63 5669.16V6005.05H4750.73C4750.73 5819.67 4901.24 5669.16 5086.63 5669.16Z" fill="#E04C2C"/>
<path d="M5482.52 5669.16V6005.05H5146.63C5146.63 5819.67 5297.14 5669.16 5482.52 5669.16Z" fill="#E04C2C"/>
<path d="M5878.42 5669.16V6005.05H5542.52C5542.52 5819.67 5693.03 5669.16 5878.42 5669.16Z" fill="#E04C2C"/>
<path d="M335.895 6105.27V6441.16H-0.000150952C-0.000150952 6255.78 150.51 6105.27 335.895 6105.27Z" fill="#E04C2C"/>
<path d="M731.789 6105.27V6441.16H395.894C395.894 6255.78 546.404 6105.27 731.789 6105.27Z" fill="#E04C2C"/>
<path d="M1127.68 6105.27V6441.16H791.789C791.789 6255.78 942.299 6105.27 1127.68 6105.27Z" fill="#E04C2C"/>
<path d="M1523.58 6105.27V6441.16H1187.68C1187.68 6255.78 1338.19 6105.27 1523.58 6105.27Z" fill="#E04C2C"/>
<path d="M1919.47 6105.27V6441.16H1583.58C1583.58 6255.78 1734.09 6105.27 1919.47 6105.27Z" fill="#E04C2C"/>
<path d="M2315.37 6105.27V6441.16H1979.47C1979.47 6255.78 2129.98 6105.27 2315.37 6105.27Z" fill="#E04C2C"/>
<path d="M2711.26 6105.27V6441.16H2375.37C2375.37 6255.78 2525.88 6105.27 2711.26 6105.27Z" fill="#E04C2C"/>
<path d="M3107.16 6105.27V6441.16H2771.26C2771.26 6255.78 2921.77 6105.27 3107.16 6105.27Z" fill="#E04C2C"/>
<path d="M3503.05 6105.27V6441.16H3167.16C3167.16 6255.78 3317.67 6105.27 3503.05 6105.27Z" fill="#E04C2C"/>
<path d="M3898.95 6105.27V6441.16H3563.05C3563.05 6255.78 3713.56 6105.27 3898.95 6105.27Z" fill="#E04C2C"/>
<path d="M4294.84 6105.27V6441.16H3958.95C3958.95 6255.78 4109.46 6105.27 4294.84 6105.27Z" fill="#E04C2C"/>
<path d="M4690.73 6105.27V6441.16H4354.84C4354.84 6255.78 4505.35 6105.27 4690.73 6105.27Z" fill="#E04C2C"/>
<path d="M5086.63 6105.27V6441.16H4750.73C4750.73 6255.78 4901.24 6105.27 5086.63 6105.27Z" fill="#E04C2C"/>
<path d="M5482.52 6105.27V6441.16H5146.63C5146.63 6255.78 5297.14 6105.27 5482.52 6105.27Z" fill="#E04C2C"/>
<path d="M5878.42 6105.27V6441.16H5542.52C5542.52 6255.78 5693.03 6105.27 5878.42 6105.27Z" fill="#E04C2C"/>
</svg>
